<svg version="1.1" id="Layer_1" xmlns="http://www.w3.org/2000/svg" xmlns:xlink="http://www.w3.org/1999/xlink" x="0px" y="0px"
	 width="100%" viewBox="0 0 512 512" enable-background="new 0 0 512 512" xml:space="preserve">
<path fill="#000000" opacity="1.000000" stroke="none" 
	d="
M513.000000,190.000000 
	C513.000000,297.973755 513.000000,405.447510 513.000000,512.960632 
	C342.401245,512.960632 171.802460,512.960632 1.101843,512.960632 
	C1.101843,342.442932 1.101843,171.885803 1.101843,1.164328 
	C171.666534,1.164328 342.333252,1.164328 513.000000,1.164328 
	C513.000000,63.864170 513.000000,126.682083 513.000000,190.000000 
M283.851471,17.678928 
	C276.546814,17.130724 269.247681,16.200598 261.936615,16.094667 
	C202.833344,15.238331 150.016479,33.274269 104.410919,70.752060 
	C48.961922,116.318977 20.059164,175.815842 16.304760,247.207428 
	C14.045432,290.169495 23.772697,330.860016 43.724903,369.042572 
	C47.395485,376.066986 47.181694,377.669128 42.118610,383.337311 
	C44.626137,387.236023 47.159126,391.174316 49.626637,395.010834 
	C56.706615,392.979645 58.362839,393.494263 62.667446,399.364990 
	C74.153763,415.030304 87.191093,429.276306 102.228027,441.560089 
	C157.252304,486.509827 220.217789,504.725128 290.580261,495.573944 
	C335.554016,489.724762 376.009583,471.981873 410.431641,442.440308 
	C479.828735,382.882599 507.755066,306.960022 494.360291,216.807739 
	C486.581268,164.451782 461.826508,119.884575 423.689514,83.151985 
	C384.840942,45.733955 338.250793,24.297537 283.851471,17.678928 
z"/>
<path fill="#C22430" opacity="1.000000" stroke="none" 
	d="
M284.299683,17.736160 
	C338.250793,24.297537 384.840942,45.733955 423.689514,83.151985 
	C461.826508,119.884575 486.581268,164.451782 494.360291,216.807739 
	C507.755066,306.960022 479.828735,382.882599 410.431641,442.440308 
	C376.009583,471.981873 335.554016,489.724762 290.580261,495.573944 
	C220.217789,504.725128 157.252304,486.509827 102.228027,441.560089 
	C87.191093,429.276306 74.153763,415.030304 62.667446,399.364990 
	C58.362839,393.494263 56.706615,392.979645 49.626637,395.010834 
	C47.159126,391.174316 44.626137,387.236023 42.118610,383.337311 
	C47.181694,377.669128 47.395485,376.066986 43.724903,369.042572 
	C23.772697,330.860016 14.045432,290.169495 16.304760,247.207428 
	C20.059164,175.815842 48.961922,116.318977 104.410919,70.752060 
	C150.016479,33.274269 202.833344,15.238331 261.936615,16.094667 
	C269.247681,16.200598 276.546814,17.130724 284.299683,17.736160 
M310.455200,36.993942 
	C297.849396,35.004215 285.306671,32.020485 272.625671,31.215984 
	C238.169159,29.030018 204.674164,33.938442 172.472473,46.956520 
	C143.189056,58.794830 117.493088,76.027420 95.368210,98.379860 
	C81.658577,112.230492 70.076706,127.845001 60.347786,144.864426 
	C43.380638,174.546143 33.466900,206.429916 31.202879,240.386917 
	C29.117792,271.660126 32.813217,302.369171 43.434650,332.172333 
	C55.157494,365.066010 73.407562,393.750153 98.025925,418.260468 
	C111.707191,431.881622 127.127029,443.471252 144.005157,453.116638 
	C192.176788,480.645569 243.782394,489.378387 298.017792,479.560059 
	C355.204895,469.207397 401.710724,440.026428 437.141815,394.024353 
	C464.756958,358.170166 479.762970,317.129486 482.838745,272.005890 
	C484.231659,251.571243 483.151093,231.066162 478.725891,210.980515 
	C466.511963,155.542618 437.957733,110.358627 392.752930,75.900063 
	C368.334290,57.286301 340.937286,44.773247 310.455200,36.993942 
z"/>
<path fill="#D94A54" opacity="1.000000" stroke="none" 
	d="
M310.867981,37.034821 
	C340.937286,44.773247 368.334290,57.286301 392.752930,75.900063 
	C437.957733,110.358627 466.511963,155.542618 478.725891,210.980515 
	C483.151093,231.066162 484.231659,251.571243 482.838745,272.005890 
	C479.762970,317.129486 464.756958,358.170166 437.141815,394.024353 
	C401.710724,440.026428 355.204895,469.207397 298.017792,479.560059 
	C243.782394,489.378387 192.176788,480.645569 144.005157,453.116638 
	C127.127029,443.471252 111.707191,431.881622 98.025925,418.260468 
	C73.407562,393.750153 55.157494,365.066010 43.434650,332.172333 
	C32.813217,302.369171 29.117792,271.660126 31.202879,240.386917 
	C33.466900,206.429916 43.380638,174.546143 60.347786,144.864426 
	C70.076706,127.845001 81.658577,112.230492 95.368210,98.379860 
	C117.493088,76.027420 143.189056,58.794830 172.472473,46.956520 
	C204.674164,33.938442 238.169159,29.030018 272.625671,31.215984 
	C285.306671,32.020485 297.849396,35.004215 310.867981,37.034821 
M432.139282,155.386490 
	C386.796295,78.845833 301.732666,40.590820 214.792587,59.134434 
	C152.288757,72.465996 106.430542,108.771965 76.466904,165.160751 
	C72.934769,171.807907 74.323792,175.404388 81.252892,178.646347 
	C87.430183,181.536545 93.620789,184.398315 99.796417,187.292053 
	C103.988609,189.256393 105.565643,192.308365 104.472855,197.019913 
	C100.789658,212.899979 97.331131,228.832031 93.736473,244.732834 
	C92.317726,251.008575 89.997375,252.691116 83.595909,252.565857 
	C76.768044,252.432251 69.936111,252.253922 63.110004,252.358673 
	C57.022221,252.452072 54.199680,255.440460 54.606110,261.534058 
	C55.203823,270.495667 55.735626,279.492371 56.998695,288.374115 
	C68.242691,367.440552 129.965836,434.873718 207.972549,453.531128 
	C214.131195,455.004120 217.505096,452.951141 218.928757,446.707123 
	C220.518784,439.733276 222.040771,432.743225 223.514969,425.743927 
	C224.482208,421.151611 227.117355,418.945557 231.905304,418.968842 
	C248.566681,419.049927 265.228912,419.048279 281.890320,418.969452 
	C286.618652,418.947083 289.377960,420.962036 290.356232,425.630341 
	C291.823242,432.630768 293.410889,439.606293 294.988129,446.583160 
	C296.411743,452.880463 299.725555,454.990692 305.834442,453.564484 
	C393.049927,433.203186 458.449677,351.420197 459.301971,261.652008 
	C459.363678,255.152466 456.879730,252.421005 450.403320,252.348175 
	C443.742645,252.273270 437.077972,252.427521 430.416748,252.564346 
	C423.935791,252.697479 421.604706,251.030319 420.205841,244.822983 
	C416.658447,229.081787 413.155457,213.330597 409.646240,197.580826 
	C408.330719,191.676559 409.370728,189.595352 414.970032,186.946747 
	C421.285797,183.959229 427.652191,181.076355 433.928986,178.009613 
	C439.351257,175.360367 440.619934,171.566315 437.949188,166.129456 
	C436.262787,162.696381 434.342590,159.378159 432.139282,155.386490 
z"/>
<path fill="#010000" opacity="1.000000" stroke="none" 
	d="
M432.333252,155.697449 
	C434.342590,159.378159 436.262787,162.696381 437.949188,166.129456 
	C440.619934,171.566315 439.351257,175.360367 433.928986,178.009613 
	C427.652191,181.076355 421.285797,183.959229 414.970032,186.946747 
	C409.370728,189.595352 408.330719,191.676559 409.646240,197.580826 
	C413.155457,213.330597 416.658447,229.081787 420.205841,244.822983 
	C421.604706,251.030319 423.935791,252.697479 430.416748,252.564346 
	C437.077972,252.427521 443.742645,252.273270 450.403320,252.348175 
	C456.879730,252.421005 459.363678,255.152466 459.301971,261.652008 
	C458.449677,351.420197 393.049927,433.203186 305.834442,453.564484 
	C299.725555,454.990692 296.411743,452.880463 294.988129,446.583160 
	C293.410889,439.606293 291.823242,432.630768 290.356232,425.630341 
	C289.377960,420.962036 286.618652,418.947083 281.890320,418.969452 
	C265.228912,419.048279 248.566681,419.049927 231.905304,418.968842 
	C227.117355,418.945557 224.482208,421.151611 223.514969,425.743927 
	C222.040771,432.743225 220.518784,439.733276 218.928757,446.707123 
	C217.505096,452.951141 214.131195,455.004120 207.972549,453.531128 
	C129.965836,434.873718 68.242691,367.440552 56.998695,288.374115 
	C55.735626,279.492371 55.203823,270.495667 54.606110,261.534058 
	C54.199680,255.440460 57.022221,252.452072 63.110004,252.358673 
	C69.936111,252.253922 76.768044,252.432251 83.595909,252.565857 
	C89.997375,252.691116 92.317726,251.008575 93.736473,244.732834 
	C97.331131,228.832031 100.789658,212.899979 104.472855,197.019913 
	C105.565643,192.308365 103.988609,189.256393 99.796417,187.292053 
	C93.620789,184.398315 87.430183,181.536545 81.252892,178.646347 
	C74.323792,175.404388 72.934769,171.807907 76.466904,165.160751 
	C106.430542,108.771965 152.288757,72.465996 214.792587,59.134434 
	C301.732666,40.590820 386.796295,78.845833 432.333252,155.697449 
M394.622009,248.040298 
	C398.044952,246.934784 401.467926,245.829285 404.876923,244.728287 
	C401.794525,231.117905 398.830627,218.030914 395.772705,204.528717 
	C367.748535,208.505386 340.075439,212.432251 311.829010,216.440460 
	C323.388855,232.927979 327.151154,250.629547 324.045654,270.072723 
	C332.587952,267.405457 340.510284,264.935333 348.430023,262.457153 
	C351.947601,261.356445 355.744507,260.808411 357.954987,264.247803 
	C359.889404,267.257751 361.709564,267.177002 364.461792,266.052826 
	C366.683533,265.145325 369.196442,264.891296 371.320526,263.828491 
	C372.432007,263.272369 373.613464,261.632294 373.676697,260.424896 
	C373.903351,256.095123 376.122467,253.783340 380.080292,252.604385 
	C384.693451,251.230240 389.259430,249.697739 394.622009,248.040298 
M232.798920,359.907532 
	C233.939362,374.465576 235.079788,389.023621 236.223038,403.617615 
	C250.269608,403.617615 263.960052,403.617615 277.683563,403.617615 
	C279.938782,375.573547 282.163208,347.912750 284.445770,319.528961 
	C265.909790,326.973511 247.940247,326.961792 229.457123,319.527985 
	C230.583817,333.166229 231.650253,346.074738 232.798920,359.907532 
M135.344269,253.043213 
	C153.383286,258.676453 171.422302,264.309662 188.617935,269.679504 
	C189.219696,260.479034 188.724762,251.023819 190.731506,242.133301 
	C192.753906,233.173462 197.261032,224.774460 200.657776,216.184662 
	C173.600235,212.350861 146.006668,208.441116 118.137321,204.492294 
	C115.037430,218.242538 112.061203,231.444229 109.048347,244.808426 
	C117.820831,247.582809 126.192406,250.230408 135.344269,253.043213 
M205.655807,270.781250 
	C213.219009,298.288483 239.943176,314.634949 268.145905,309.004791 
	C296.197693,303.404755 314.516815,275.434875 309.075348,246.513123 
	C303.845306,218.715057 275.880646,199.707382 248.149918,204.519043 
	C219.596573,209.473450 197.655304,237.599075 205.655807,270.781250 
z"/>
<path fill="#DFDCDF" opacity="1.000000" stroke="none" 
	d="
M394.233948,248.137115 
	C389.259430,249.697739 384.693451,251.230240 380.080292,252.604385 
	C376.122467,253.783340 373.903351,256.095123 373.676697,260.424896 
	C373.613464,261.632294 372.432007,263.272369 371.320526,263.828491 
	C369.196442,264.891296 366.683533,265.145325 364.461792,266.052826 
	C361.709564,267.177002 359.889404,267.257751 357.954987,264.247803 
	C355.744507,260.808411 351.947601,261.356445 348.430023,262.457153 
	C340.510284,264.935333 332.587952,267.405457 324.045654,270.072723 
	C327.151154,250.629547 323.388855,232.927979 311.829010,216.440460 
	C340.075439,212.432251 367.748535,208.505386 395.772705,204.528717 
	C398.830627,218.030914 401.794525,231.117905 404.876923,244.728287 
	C401.467926,245.829285 398.044952,246.934784 394.233948,248.137115 
M367.212891,230.583466 
	C363.384003,225.419571 358.405029,224.691879 354.890411,228.878006 
	C352.480469,231.748398 352.234467,234.926834 354.485229,237.972778 
	C356.688019,240.953735 359.867462,242.072083 363.261353,240.620148 
	C367.259399,238.909729 368.762878,235.603653 367.212891,230.583466 
M334.816833,244.968811 
	C340.757751,247.103760 345.476898,244.835999 345.993561,239.509399 
	C346.356293,235.769760 344.703369,233.121094 341.204407,231.720016 
	C337.590973,230.273087 334.605133,231.476135 332.525757,234.458984 
	C329.928131,238.185287 330.824768,241.635727 334.816833,244.968811 
M376.561646,224.267120 
	C373.661957,229.985489 375.668915,235.272675 381.101044,236.086899 
	C384.794281,236.640472 388.205200,235.357605 388.963165,231.781693 
	C389.516571,229.170837 388.856232,225.378418 387.193878,223.427780 
	C384.335205,220.073410 380.413208,220.831131 376.561646,224.267120 
z"/>
<path fill="#DFDCDF" opacity="1.000000" stroke="none" 
	d="
M232.757797,359.445374 
	C231.650253,346.074738 230.583817,333.166229 229.457123,319.527985 
	C247.940247,326.961792 265.909790,326.973511 284.445770,319.528961 
	C282.163208,347.912750 279.938782,375.573547 277.683563,403.617615 
	C263.960052,403.617615 250.269608,403.617615 236.223038,403.617615 
	C235.079788,389.023621 233.939362,374.465576 232.757797,359.445374 
M262.872589,345.100098 
	C262.896118,342.158661 263.880127,338.684296 262.637817,336.445190 
	C261.652496,334.669281 257.715240,333.321411 255.501694,333.779449 
	C253.319885,334.230927 250.436508,336.991943 250.090759,339.104614 
	C249.700577,341.488770 251.120514,345.009369 252.969330,346.726013 
	C255.862061,349.411987 259.457428,348.412659 262.872589,345.100098 
M249.479797,385.505554 
	C250.847305,391.545135 254.875168,394.439087 259.442566,392.499359 
	C263.025391,390.977814 264.828827,388.198181 264.183350,384.228760 
	C263.569550,380.454224 261.006378,378.336792 257.409332,378.153992 
	C253.020081,377.930969 250.366257,380.413879 249.479797,385.505554 
M251.092636,358.491974 
	C248.582687,363.855560 249.547455,368.115021 253.878204,369.887665 
	C257.542358,371.387482 260.862457,370.616089 263.076019,367.224060 
	C265.113556,364.101746 264.991211,360.694763 262.320923,358.059662 
	C258.982819,354.765533 255.226303,354.854126 251.092636,358.491974 
z"/>
<path fill="#DFDCDF" opacity="1.000000" stroke="none" 
	d="
M134.954132,252.960602 
	C126.192406,250.230408 117.820831,247.582809 109.048347,244.808426 
	C112.061203,231.444229 115.037430,218.242538 118.137321,204.492294 
	C146.006668,208.441116 173.600235,212.350861 200.657776,216.184662 
	C197.261032,224.774460 192.753906,233.173462 190.731506,242.133301 
	C188.724762,251.023819 189.219696,260.479034 188.617935,269.679504 
	C171.422302,264.309662 153.383286,258.676453 134.954132,252.960602 
M177.704788,231.609528 
	C173.769135,230.310089 170.388428,231.779922 169.044754,235.204391 
	C168.138000,237.515305 168.450272,241.314590 169.865921,243.228897 
	C171.156815,244.974503 174.951019,246.165726 177.121307,245.600922 
	C179.309494,245.031464 181.686386,242.288757 182.490051,239.979492 
	C183.684723,236.546692 181.696304,233.638260 177.704788,231.609528 
M138.989502,228.574844 
	C137.167435,226.286026 135.758514,223.151245 133.384796,221.992035 
	C131.669968,221.154587 127.717842,222.191315 126.490425,223.751099 
	C124.970856,225.682175 124.430466,229.177109 124.928902,231.708603 
	C125.601830,235.126312 128.761261,236.482712 132.273712,236.137360 
	C136.324844,235.739014 138.336273,233.197342 138.989502,228.574844 
M159.073456,238.556046 
	C161.859756,233.326706 160.859146,228.702408 156.403976,227.023834 
	C152.801636,225.666580 149.463211,226.285049 147.223495,229.627991 
	C145.151138,232.721130 145.344986,236.018326 147.947556,238.700668 
	C151.210678,242.063828 154.878494,242.062408 159.073456,238.556046 
z"/>
<path fill="#A6A6A6" opacity="1.000000" stroke="none" 
	d="
M205.512009,270.392822 
	C197.655304,237.599075 219.596573,209.473450 248.149918,204.519043 
	C275.880646,199.707382 303.845306,218.715057 309.075348,246.513123 
	C314.516815,275.434875 296.197693,303.404755 268.145905,309.004791 
	C239.943176,314.634949 213.219009,298.288483 205.512009,270.392822 
M213.866959,256.537750 
	C214.488174,283.713196 237.088928,303.614105 262.999969,299.801392 
	C285.842499,296.440155 301.707733,276.321594 299.966248,252.924835 
	C298.306396,230.625153 278.598999,213.393265 255.371552,213.931808 
	C232.932968,214.452087 214.842117,232.629959 213.866959,256.537750 
z"/>
<path fill="#080708" opacity="1.000000" stroke="none" 
	d="
M367.391724,230.929153 
	C368.762878,235.603653 367.259399,238.909729 363.261353,240.620148 
	C359.867462,242.072083 356.688019,240.953735 354.485229,237.972778 
	C352.234467,234.926834 352.480469,231.748398 354.890411,228.878006 
	C358.405029,224.691879 363.384003,225.419571 367.391724,230.929153 
z"/>
<path fill="#090909" opacity="1.000000" stroke="none" 
	d="
M334.482544,244.762665 
	C330.824768,241.635727 329.928131,238.185287 332.525757,234.458984 
	C334.605133,231.476135 337.590973,230.273087 341.204407,231.720016 
	C344.703369,233.121094 346.356293,235.769760 345.993561,239.509399 
	C345.476898,244.835999 340.757751,247.103760 334.482544,244.762665 
z"/>
<path fill="#070707" opacity="1.000000" stroke="none" 
	d="
M376.837250,223.998077 
	C380.413208,220.831131 384.335205,220.073410 387.193878,223.427780 
	C388.856232,225.378418 389.516571,229.170837 388.963165,231.781693 
	C388.205200,235.357605 384.794281,236.640472 381.101044,236.086899 
	C375.668915,235.272675 373.661957,229.985489 376.837250,223.998077 
z"/>
<path fill="#070707" opacity="1.000000" stroke="none" 
	d="
M262.612732,345.408203 
	C259.457428,348.412659 255.862061,349.411987 252.969330,346.726013 
	C251.120514,345.009369 249.700577,341.488770 250.090759,339.104614 
	C250.436508,336.991943 253.319885,334.230927 255.501694,333.779449 
	C257.715240,333.321411 261.652496,334.669281 262.637817,336.445190 
	C263.880127,338.684296 262.896118,342.158661 262.612732,345.408203 
z"/>
<path fill="#060606" opacity="1.000000" stroke="none" 
	d="
M249.523926,385.140320 
	C250.366257,380.413879 253.020081,377.930969 257.409332,378.153992 
	C261.006378,378.336792 263.569550,380.454224 264.183350,384.228760 
	C264.828827,388.198181 263.025391,390.977814 259.442566,392.499359 
	C254.875168,394.439087 250.847305,391.545135 249.523926,385.140320 
z"/>
<path fill="#050505" opacity="1.000000" stroke="none" 
	d="
M251.358246,358.216034 
	C255.226303,354.854126 258.982819,354.765533 262.320923,358.059662 
	C264.991211,360.694763 265.113556,364.101746 263.076019,367.224060 
	C260.862457,370.616089 257.542358,371.387482 253.878204,369.887665 
	C249.547455,368.115021 248.582687,363.855560 251.358246,358.216034 
z"/>
<path fill="#080808" opacity="1.000000" stroke="none" 
	d="
M178.059494,231.751740 
	C181.696304,233.638260 183.684723,236.546692 182.490051,239.979492 
	C181.686386,242.288757 179.309494,245.031464 177.121307,245.600922 
	C174.951019,246.165726 171.156815,244.974503 169.865921,243.228897 
	C168.450272,241.314590 168.138000,237.515305 169.044754,235.204391 
	C170.388428,231.779922 173.769135,230.310089 178.059494,231.751740 
z"/>
<path fill="#070707" opacity="1.000000" stroke="none" 
	d="
M138.983215,228.967987 
	C138.336273,233.197342 136.324844,235.739014 132.273712,236.137360 
	C128.761261,236.482712 125.601830,235.126312 124.928902,231.708603 
	C124.430466,229.177109 124.970856,225.682175 126.490425,223.751099 
	C127.717842,222.191315 131.669968,221.154587 133.384796,221.992035 
	C135.758514,223.151245 137.167435,226.286026 138.983215,228.967987 
z"/>
<path fill="#090909" opacity="1.000000" stroke="none" 
	d="
M158.802490,238.841385 
	C154.878494,242.062408 151.210678,242.063828 147.947556,238.700668 
	C145.344986,236.018326 145.151138,232.721130 147.223495,229.627991 
	C149.463211,226.285049 152.801636,225.666580 156.403976,227.023834 
	C160.859146,228.702408 161.859756,233.326706 158.802490,238.841385 
z"/>
<path fill="#030202" opacity="1.000000" stroke="none" 
	d="
M213.880371,256.073425 
	C214.842117,232.629959 232.932968,214.452087 255.371552,213.931808 
	C278.598999,213.393265 298.306396,230.625153 299.966248,252.924835 
	C301.707733,276.321594 285.842499,296.440155 262.999969,299.801392 
	C237.088928,303.614105 214.488174,283.713196 213.880371,256.073425 
M250.455170,229.619019 
	C238.518524,232.886673 231.052063,240.614761 229.196671,252.774628 
	C227.374557,264.716217 231.874619,274.548157 242.238739,280.896423 
	C252.558487,287.217468 263.203796,286.794342 273.220917,279.936096 
	C283.903748,272.622009 287.878265,258.788879 283.145477,246.706589 
	C278.160065,233.979492 266.261963,227.502655 250.455170,229.619019 
z"/>
<path fill="#D94953" opacity="1.000000" stroke="none" 
	d="
M250.861984,229.486664 
	C266.261963,227.502655 278.160065,233.979492 283.145477,246.706589 
	C287.878265,258.788879 283.903748,272.622009 273.220917,279.936096 
	C263.203796,286.794342 252.558487,287.217468 242.238739,280.896423 
	C231.874619,274.548157 227.374557,264.716217 229.196671,252.774628 
	C231.052063,240.614761 238.518524,232.886673 250.861984,229.486664 
z"/>
</svg>